<?xml version="1.0" encoding="utf-8"?>

<!DOCTYPE svg PUBLIC "-//W3C//DTD SVG 1.1//EN" "http://www.w3.org/Graphics/SVG/1.1/DTD/svg11.dtd">
<svg version="1.1" id="Layer_1" xmlns="http://www.w3.org/2000/svg" xmlns:xlink="http://www.w3.org/1999/xlink" x="0px" y="0px"
	 viewBox="0 0 1190.33 1690.455" enable-background="new 0 0 1190.33 1690.455" xml:space="preserve">
<g>
	<g>
		<linearGradient id="SVGID_1_" gradientUnits="userSpaceOnUse" x1="32.2239" y1="519.8137" x2="863.3599" y2="519.8137">
			<stop  offset="0" style="stop-color:#FCCA5B"/>
			<stop  offset="0.18" style="stop-color:#AD6C28"/>
			<stop  offset="0.51" style="stop-color:#FFF9AE"/>
			<stop  offset="0.6" style="stop-color:#935823"/>
			<stop  offset="0.82" style="stop-color:#DB994F"/>
			<stop  offset="1" style="stop-color:#FBE285"/>
		</linearGradient>
		<linearGradient id="SVGID_2_" gradientUnits="userSpaceOnUse" x1="27.4224" y1="519.8137" x2="865.8559" y2="519.8137">
			<stop  offset="0" style="stop-color:#88673C"/>
			<stop  offset="0.0332" style="stop-color:#6D542B"/>
			<stop  offset="0.0588" style="stop-color:#6D542B"/>
			<stop  offset="0.0814" style="stop-color:#8A6F3D"/>
			<stop  offset="0.1071" style="stop-color:#C0A367"/>
			<stop  offset="0.1086" style="stop-color:#C3A76B"/>
			<stop  offset="0.1238" style="stop-color:#DCC793"/>
			<stop  offset="0.1359" style="stop-color:#EBDCAB"/>
			<stop  offset="0.1433" style="stop-color:#F1E3B4"/>
			<stop  offset="0.1689" style="stop-color:#F1E3B4"/>
			<stop  offset="0.1832" style="stop-color:#EFE1B1"/>
			<stop  offset="0.1947" style="stop-color:#EAD9A7"/>
			<stop  offset="0.2051" style="stop-color:#E2CD96"/>
			<stop  offset="0.273" style="stop-color:#AA8D52"/>
			<stop  offset="0.3228" style="stop-color:#886A38"/>
			<stop  offset="0.5445" style="stop-color:#886A38"/>
			<stop  offset="0.5899" style="stop-color:#E9D6A2"/>
			<stop  offset="0.6575" style="stop-color:#9B7C45"/>
			<stop  offset="0.8235" style="stop-color:#CAB076"/>
			<stop  offset="0.8537" style="stop-color:#E9D6A2"/>
			<stop  offset="0.8839" style="stop-color:#FCF6D4"/>
			<stop  offset="0.9291" style="stop-color:#FCF6D4"/>
			<stop  offset="0.9397" style="stop-color:#E7D59B"/>
			<stop  offset="0.9548" style="stop-color:#C5A86E"/>
			<stop  offset="0.9744" style="stop-color:#795B34"/>
			<stop  offset="1" style="stop-color:#795B34"/>
		</linearGradient>
		<path fill="url(#SVGID_1_)" stroke="url(#SVGID_2_)" stroke-width="4" stroke-miterlimit="10" d="M167.456,49.509
			c5.057-0.199,9.67-2.887,14.634-3.875c9.392-1.869,13.492,6.188,18.626,12.402c-5.686,6.065-11.419,12.13-16.868,18.384
			c8.387-0.758,16.773-1.706,25.16-2.464c1.611,5.354,3.222,10.756,4.786,16.157c-11.798,5.259-23.549,11.182-32.362,20.99
			c39.28,11.751,66.762,47.904,72.069,87.894c5.259,49.562,8.245,99.835,3.269,149.586c-9.145,63.777-30.088,128.217-17.389,193.036
			c10.472,19.901,30.799,32.599,48.046,46.34c30.609,16.347,63.729,28.287,97.229,37.479
			c-18.906-29.661-41.649-58.138-71.216-77.802c-8.624-7.013-20.043-5.686-30.372-5.449c-1.99,10.14-3.98,20.28-6.302,30.372
			c-7.249-5.307-14.404-10.756-21.512-16.3c9.003-23.454,27.956-45.061,54.348-47.619c23.739-5.591,38.854,17.674,54.442,31.272
			c31.604,37.764,60.744,77.66,91.59,116.087c-5.449,7.581-10.993,15.115-16.3,22.791c12.272-1.137,24.497-2.843,36.674-4.833
			c-9.998-22.602-28.809-40.986-34.542-65.435c-5.591-20.754,16.157-46.34,37.859-38.096c33.073,8.955,65.104,22.033,94.86,39.043
			c12.509,7.155,24.544,15.684,38.664,19.474c15.21,0.521,29.804-5.307,44.208-9.524c-0.237-14.215,6.539-27.292,17.342-36.342
			c21.701-5.544,40.038,25.966,25.444,42.36c-24.686,5.449-50.131,7.013-74.864,12.509c11.893,7.25,24.212,13.599,36.484,20.09
			c-7.344,12.509-12.414,28.998-27.103,34.684c-17.531,5.354-36.105,2.511-54.063,2.369c-0.332,29.14-4.312,63.824,18.574,86.236
			c12.462,1.99,25.634-5.781,29.472-17.911c15.352-47.146,47.098-90.974,92.87-112.344c-1.516,14.404-0.332,30.609-10.282,42.502
			c-13.836,19.664-31.036,41.175-27.387,66.857c0.853,16.489,19.332,22.933,33.357,22.886c19.522,1.564,35.869-13.504,43.876-29.993
			c8.671-23.312,5.023-48.614,4.359-72.827c-1.137-16.205,9.761-29.33,18.053-42.028c20.564,25.492,9.287,58.659,4.17,87.373
			c-2.653,21.891-8.008,47.288,6.728,66.241c5.923,11.087,18.906,13.551,29.993,16.442c19.569-35.3,6.112-77.281,2.89-115.045
			c-4.691-18.432,11.94-30.988,22.649-43.213c3.696,16.868,8.387,33.405,13.741,49.799c-3.412,1.279-10.14,3.885-13.551,5.212
			c3.791,36.958,7.155,75.48-5.733,111.159c-6.491,18.763-30.04,30.277-48.472,21.512c-20.943-5.638-29.472-27.008-37.432-44.871
			c-16.252,11.561-34.258,26.155-55.627,21.038c-24.402,0.047-41.791-24.781-38.711-47.714c2.511-18.147,7.534-35.821,10.045-53.921
			c-10.519,12.272-21.512,25.113-25.729,41.175c-6.207,20.422-9.24,47.24-31.462,56.812c-16.205,0.427-30.941-11.04-38.238-25.018
			c-13.504-28.714-11.609-61.455-7.013-92.017c-21.417-1.611-42.976-0.805-64.156,2.796c15.447,1.895,33.973-1.895,45.961,10.424
			c12.556,13.267,9.666,33.073,8.861,49.752c-2.985,36.721-33.073,64.582-65.198,78.56c-29.614,13.172-62.592,12.509-94.054,17.532
			c30.988,15.968,65.34,23.312,98.556,33.168c39.043,7.581,77.66,18.432,117.556,20.517c11.135,1.611,25.918-1.09,30.893,11.846
			c4.312,10.424,16.11,10.472,25.634,11.703c-0.237-6.634-0.474-13.22-0.711-19.806c13.172,1.516,29.851-1.658,39.043,10.282
			c19.853,19.853,10.045,54.016-9.761,70.031c-13.409,9.24-29.14,0.237-42.786-3.648c-4.407-14.878-9.24-29.614-13.694-44.445
			c-55.295-3.933-111.207-7.06-164.701-22.791c-54.206-12.935-106.895-32.268-156.694-57.238
			c-62.829-34.021-112.865-88.795-146.791-151.197c-16.584-35.11-26.582-72.969-31.794-111.396
			c-3.601-25.492,4.691-50.51,6.634-75.812c2.701-35.016,13.314-68.799,16.963-103.72c9.856-62.403,9.666-125.943,2.843-188.677
			c9.097-2.653,18.147-5.639,27.15-8.624c13.93,80.124,1.801,161.432-12.841,240.466c-3.364,36.721-10.945,73.111-10.235,110.117
			c-2.322,34.352,10.472,67.046,21.417,98.887c7.865,21.796-5.97,48.378,13.741,65.956c-2.843-14.831-12.983-29.898-6.728-45.108
			c11.135-30.846,39.564-50.889,68.941-62.734c-11.94-13.03-10.187-32.457-21.891-45.44c-7.249,2.417-14.167,12.367-22.27,7.297
			c-19.758-9.998-24.449-34.163-26.866-54.111c0.995-37.764,7.96-75.101,15.731-111.965c9.571-42.597,11.751-86.378,14.357-129.828
			c-0.142-27.577-4.549-55.011-9.524-82.066c-2.653-15.826-12.793-28.666-22.27-41.033c0.758,13.694,3.364,28.429-3.838,40.986
			c-4.217,13.883-23.928,9.24-33.689,3.885c-19.19-14.736-22.601-40.749-20.706-63.35c-41.697,6.018-72.827,37.906-112.296,49.988
			c16.773-24.971,44.255-38.617,68.373-55.106c15.778-9.761,30.609-22.507,49.183-26.439c12.699-1.611,23.596,7.013,34.258,12.604
			c-9.524-10.377-12.841-24.118-16.157-37.385c-13.22-4.122-19.095-14.925-15.778-28.287c8.387,0.663,16.773,1.469,25.16,2.227
			c-3.222-7.439-6.539-14.878-9.713-22.365 M172.665,172.134c2.417,8.055,6.539,15.399,12.746,21.133
			C182.189,185.638,177.972,178.483,172.665,172.134 M471.033,603.219c12.983,21.37,27.055,42.313,35.726,65.909
			c29.188-3.98,58.659-4.549,88.037-5.496C554.758,640.983,512.966,621.888,471.033,603.219 M220.332,695.852
			c-3.601,13.788,7.629,25.681,19.711,30.135c23.928,9.856,49.799,0.711,72.969-6.965c-5.449-7.013-10.851-14.073-16.157-21.133
			c7.25-6.728,14.594-13.362,21.985-19.948c11.751,8.15,20.801,19.616,17.295,34.731c34.447-11.277,69.937-19.995,102.867-35.395
			c-33.31-8.245-65.814-19.285-98.887-28.335c-16.726-4.407-32.078-13.267-49.325-15.684
			C259.423,642.025,234.12,666.854,220.332,695.852 M395.505,720.396c11.04,3.601,26.013,0.474,34.115,10.282
			c3.696,11.988,0.948,24.828,1.185,37.195c22.175,4.738,40.702-13.267,50.841-30.893c0.569-13.125-9.097-24.686-12.935-37.006
			C444.12,705.897,418.817,710.067,395.505,720.396 M306.142,752.095c-25.492,9.429-52.974,6.16-78.939,0.805
			c17.626,8.055,33.168,19.522,48.425,31.225c27.577,17.674,54.49,36.911,84.862,49.467c-7.202-21.322-11.135-44.066-3.696-65.956
			c-12.604,18.669-36.248,22.649-57.143,23.881c-15.115,0.569-25.492-12.272-35.537-21.606c32.931-0.19,67.615,1.232,97.797-14.167
			c13.409-9.05,22.791-22.696,33.547-34.589C364.422,727.646,335.756,741.434,306.142,752.095 M514.719,729.825
			c-5.259,8.576,12.935,15.92,15.636,6.397C530.166,729.351,519.789,725.513,514.719,729.825 M382.712,746.836
			c-7.676,18.195-19.143,43.26,0.426,58.328c24.165,13.93,54.774,11.419,81.261,5.97c26.25-5.781,53.447-9.95,77.186-23.359
			c-17.721-14.926-39.28-23.644-61.36-29.851c-6.918,11.372-12.888,23.739-22.696,32.978c-10.092,7.913-24.449,8.529-36.342,4.738
			c-11.419-5.307-12.319-19.569-16.963-29.756C402.281,755.033,390.767,751.905,382.712,746.836 M681.316,942.999
			c-0.142,3.838-0.379,11.514-0.521,15.305c6.302,0,12.604-0.047,18.953-0.142C693.872,952.807,687.713,947.737,681.316,942.999z"/>
		<g>
			<linearGradient id="SVGID_3_" gradientUnits="userSpaceOnUse" x1="384.703" y1="521.6565" x2="463.926" y2="521.6565">
				<stop  offset="0" style="stop-color:#FCCA5B"/>
				<stop  offset="0.18" style="stop-color:#AD6C28"/>
				<stop  offset="0.51" style="stop-color:#FFF9AE"/>
				<stop  offset="0.6" style="stop-color:#935823"/>
				<stop  offset="0.82" style="stop-color:#DB994F"/>
				<stop  offset="1" style="stop-color:#FBE285"/>
			</linearGradient>
			<path fill="url(#SVGID_3_)" d="M412.042,498.551c19.948-8.102,46.672,2.985,51.884,24.355
				c-13.788,24.734-45.866,29.377-70.6,20.043c8.718-6.444,17.674-12.509,26.345-19.048c-11.703,0.616-23.312,1.753-34.968,2.701
				C392.188,515.988,397.495,500.778,412.042,498.551z"/>
			<linearGradient id="SVGID_4_" gradientUnits="userSpaceOnUse" x1="384.703" y1="521.6565" x2="463.926" y2="521.6565">
				<stop  offset="0" style="stop-color:#88673C"/>
				<stop  offset="0.0332" style="stop-color:#6D542B"/>
				<stop  offset="0.0588" style="stop-color:#6D542B"/>
				<stop  offset="0.0814" style="stop-color:#8A6F3D"/>
				<stop  offset="0.1071" style="stop-color:#C0A367"/>
				<stop  offset="0.1086" style="stop-color:#C3A76B"/>
				<stop  offset="0.1238" style="stop-color:#DCC793"/>
				<stop  offset="0.1359" style="stop-color:#EBDCAB"/>
				<stop  offset="0.1433" style="stop-color:#F1E3B4"/>
				<stop  offset="0.1689" style="stop-color:#F1E3B4"/>
				<stop  offset="0.1832" style="stop-color:#EFE1B1"/>
				<stop  offset="0.1947" style="stop-color:#EAD9A7"/>
				<stop  offset="0.2051" style="stop-color:#E2CD96"/>
				<stop  offset="0.273" style="stop-color:#AA8D52"/>
				<stop  offset="0.3228" style="stop-color:#886A38"/>
				<stop  offset="0.5445" style="stop-color:#886A38"/>
				<stop  offset="0.5899" style="stop-color:#E9D6A2"/>
				<stop  offset="0.6575" style="stop-color:#9B7C45"/>
				<stop  offset="0.8235" style="stop-color:#CAB076"/>
				<stop  offset="0.8537" style="stop-color:#E9D6A2"/>
				<stop  offset="0.8839" style="stop-color:#FCF6D4"/>
				<stop  offset="0.9291" style="stop-color:#FCF6D4"/>
				<stop  offset="0.9397" style="stop-color:#E7D59B"/>
				<stop  offset="0.9548" style="stop-color:#C5A86E"/>
				<stop  offset="0.9744" style="stop-color:#795B34"/>
				<stop  offset="1" style="stop-color:#795B34"/>
			</linearGradient>
			<path fill="url(#SVGID_4_)" d="M426.06,495.895v4c7.6,0,15.217,2.338,21.447,6.582c6.03,4.108,10.193,9.569,12.118,15.866
				c-8.171,13.418-23.282,21.075-41.738,21.075c-5.266,0-10.605-0.656-15.755-1.922c1.782-1.277,3.561-2.542,5.313-3.788
				c4.818-3.425,9.799-6.967,14.634-10.614l10.443-7.876l-13.062,0.688c-8.641,0.455-17.344,1.201-25.761,1.923
				c-0.427,0.037-0.854,0.073-1.281,0.11c0.187-0.311,0.373-0.621,0.559-0.93c5.27-8.774,10.248-17.062,19.67-18.504l0.465-0.071
				l0.435-0.177c3.859-1.567,8.069-2.362,12.512-2.362L426.06,495.895 M426.059,495.895c-4.8,0-9.577,0.853-14.017,2.656
				c-14.547,2.227-19.854,17.437-27.339,28.051c11.656-0.948,23.265-2.085,34.968-2.701c-8.671,6.539-17.627,12.604-26.345,19.048
				c7.731,2.917,16.178,4.469,24.561,4.469c18.438,0,36.561-7.509,46.039-24.512C459.874,506.293,442.822,495.894,426.059,495.895
				L426.059,495.895z"/>
		</g>
		<g>
			<linearGradient id="SVGID_5_" gradientUnits="userSpaceOnUse" x1="293.728" y1="575.4807" x2="333.576" y2="575.4807">
				<stop  offset="0" style="stop-color:#FCCA5B"/>
				<stop  offset="0.18" style="stop-color:#AD6C28"/>
				<stop  offset="0.51" style="stop-color:#FFF9AE"/>
				<stop  offset="0.6" style="stop-color:#935823"/>
				<stop  offset="0.82" style="stop-color:#DB994F"/>
				<stop  offset="1" style="stop-color:#FBE285"/>
			</linearGradient>
			<path fill="url(#SVGID_5_)" d="M293.728,566.924c8.813-1.564,18.195-6.728,27.055-3.08c7.013,5.781,8.718,15.541,12.793,23.312
				c-8.908,0.758-17.911,1.895-26.818,0.758C297.85,584.93,296.997,574.316,293.728,566.924z"/>
			<linearGradient id="SVGID_6_" gradientUnits="userSpaceOnUse" x1="293.728" y1="575.4807" x2="333.576" y2="575.4807">
				<stop  offset="0" style="stop-color:#88673C"/>
				<stop  offset="0.0332" style="stop-color:#6D542B"/>
				<stop  offset="0.0588" style="stop-color:#6D542B"/>
				<stop  offset="0.0814" style="stop-color:#8A6F3D"/>
				<stop  offset="0.1071" style="stop-color:#C0A367"/>
				<stop  offset="0.1086" style="stop-color:#C3A76B"/>
				<stop  offset="0.1238" style="stop-color:#DCC793"/>
				<stop  offset="0.1359" style="stop-color:#EBDCAB"/>
				<stop  offset="0.1433" style="stop-color:#F1E3B4"/>
				<stop  offset="0.1689" style="stop-color:#F1E3B4"/>
				<stop  offset="0.1832" style="stop-color:#EFE1B1"/>
				<stop  offset="0.1947" style="stop-color:#EAD9A7"/>
				<stop  offset="0.2051" style="stop-color:#E2CD96"/>
				<stop  offset="0.273" style="stop-color:#AA8D52"/>
				<stop  offset="0.3228" style="stop-color:#886A38"/>
				<stop  offset="0.5445" style="stop-color:#886A38"/>
				<stop  offset="0.5899" style="stop-color:#E9D6A2"/>
				<stop  offset="0.6575" style="stop-color:#9B7C45"/>
				<stop  offset="0.8235" style="stop-color:#CAB076"/>
				<stop  offset="0.8537" style="stop-color:#E9D6A2"/>
				<stop  offset="0.8839" style="stop-color:#FCF6D4"/>
				<stop  offset="0.9291" style="stop-color:#FCF6D4"/>
				<stop  offset="0.9397" style="stop-color:#E7D59B"/>
				<stop  offset="0.9548" style="stop-color:#C5A86E"/>
				<stop  offset="0.9744" style="stop-color:#795B34"/>
				<stop  offset="1" style="stop-color:#795B34"/>
			</linearGradient>
			<path fill="url(#SVGID_6_)" d="M314.016,566.566L314.016,566.566c1.71,0,3.25,0.25,4.687,0.762
				c3.711,3.317,5.687,8.301,7.775,13.566c0.365,0.919,0.734,1.85,1.116,2.781c-4.215,0.377-8.521,0.72-12.695,0.72
				c-2.608,0-4.974-0.13-7.216-0.397c-4.215-1.598-5.853-5.785-8.01-12.399c-0.194-0.596-0.391-1.198-0.592-1.8
				c1.138-0.305,2.266-0.63,3.378-0.95C306.529,567.675,310.375,566.566,314.016,566.566 M314.015,562.566
				c-6.776,0-13.691,3.187-20.287,4.358c3.269,7.392,4.122,18.006,13.03,20.99c2.707,0.346,5.422,0.481,8.141,0.481
				c6.229,0,12.476-0.711,18.677-1.239c-4.075-7.771-5.78-17.531-12.793-23.312C318.554,562.926,316.293,562.566,314.015,562.566
				L314.015,562.566z"/>
		</g>
		<g>
			<linearGradient id="SVGID_7_" gradientUnits="userSpaceOnUse" x1="240.47" y1="612.8855" x2="258.844" y2="612.8855">
				<stop  offset="0" style="stop-color:#FCCA5B"/>
				<stop  offset="0.18" style="stop-color:#AD6C28"/>
				<stop  offset="0.51" style="stop-color:#FFF9AE"/>
				<stop  offset="0.6" style="stop-color:#935823"/>
				<stop  offset="0.82" style="stop-color:#DB994F"/>
				<stop  offset="1" style="stop-color:#FBE285"/>
			</linearGradient>
			<path fill="url(#SVGID_7_)" d="M247.672,590.805c2.748,1.09,8.292,3.222,11.04,4.312c1.327,15.731-7.534,29.282-18.242,39.849
				C241.702,620.087,243.834,605.257,247.672,590.805z"/>
			<linearGradient id="SVGID_8_" gradientUnits="userSpaceOnUse" x1="240.47" y1="612.8855" x2="258.844" y2="612.8855">
				<stop  offset="0" style="stop-color:#88673C"/>
				<stop  offset="0.0332" style="stop-color:#6D542B"/>
				<stop  offset="0.0588" style="stop-color:#6D542B"/>
				<stop  offset="0.0814" style="stop-color:#8A6F3D"/>
				<stop  offset="0.1071" style="stop-color:#C0A367"/>
				<stop  offset="0.1086" style="stop-color:#C3A76B"/>
				<stop  offset="0.1238" style="stop-color:#DCC793"/>
				<stop  offset="0.1359" style="stop-color:#EBDCAB"/>
				<stop  offset="0.1433" style="stop-color:#F1E3B4"/>
				<stop  offset="0.1689" style="stop-color:#F1E3B4"/>
				<stop  offset="0.1832" style="stop-color:#EFE1B1"/>
				<stop  offset="0.1947" style="stop-color:#EAD9A7"/>
				<stop  offset="0.2051" style="stop-color:#E2CD96"/>
				<stop  offset="0.273" style="stop-color:#AA8D52"/>
				<stop  offset="0.3228" style="stop-color:#886A38"/>
				<stop  offset="0.5445" style="stop-color:#886A38"/>
				<stop  offset="0.5899" style="stop-color:#E9D6A2"/>
				<stop  offset="0.6575" style="stop-color:#9B7C45"/>
				<stop  offset="0.8235" style="stop-color:#CAB076"/>
				<stop  offset="0.8537" style="stop-color:#E9D6A2"/>
				<stop  offset="0.8839" style="stop-color:#FCF6D4"/>
				<stop  offset="0.9291" style="stop-color:#FCF6D4"/>
				<stop  offset="0.9397" style="stop-color:#E7D59B"/>
				<stop  offset="0.9548" style="stop-color:#C5A86E"/>
				<stop  offset="0.9744" style="stop-color:#795B34"/>
				<stop  offset="1" style="stop-color:#795B34"/>
			</linearGradient>
			<path fill="url(#SVGID_8_)" d="M250.437,596.182c0.428,0.167,0.863,0.335,1.298,0.504c1.067,0.415,2.135,0.829,3.106,1.208
				c0.081,8.296-2.977,16.671-9.127,25.016C246.887,613.28,248.45,604.439,250.437,596.182 M247.672,590.805
				c-3.838,14.452-5.97,29.282-7.202,44.161c10.708-10.567,19.569-24.118,18.242-39.849
				C255.964,594.027,250.42,591.895,247.672,590.805L247.672,590.805z"/>
		</g>
		<g>
			<linearGradient id="SVGID_9_" gradientUnits="userSpaceOnUse" x1="500.789" y1="647.9915" x2="535.5358" y2="647.9915">
				<stop  offset="0" style="stop-color:#FCCA5B"/>
				<stop  offset="0.18" style="stop-color:#AD6C28"/>
				<stop  offset="0.51" style="stop-color:#FFF9AE"/>
				<stop  offset="0.6" style="stop-color:#935823"/>
				<stop  offset="0.82" style="stop-color:#DB994F"/>
				<stop  offset="1" style="stop-color:#FBE285"/>
			</linearGradient>
			<path fill="url(#SVGID_9_)" d="M500.789,642.168c11.277-4.549,24.212-7.013,34.494,1.327
				c2.227,10.282-10.803,11.561-17.674,14.499C509.507,656.856,506.333,647.238,500.789,642.168z"/>
			<linearGradient id="SVGID_10_" gradientUnits="userSpaceOnUse" x1="500.789" y1="647.9915" x2="535.5358" y2="647.9915">
				<stop  offset="0" style="stop-color:#88673C"/>
				<stop  offset="0.0332" style="stop-color:#6D542B"/>
				<stop  offset="0.0588" style="stop-color:#6D542B"/>
				<stop  offset="0.0814" style="stop-color:#8A6F3D"/>
				<stop  offset="0.1071" style="stop-color:#C0A367"/>
				<stop  offset="0.1086" style="stop-color:#C3A76B"/>
				<stop  offset="0.1238" style="stop-color:#DCC793"/>
				<stop  offset="0.1359" style="stop-color:#EBDCAB"/>
				<stop  offset="0.1433" style="stop-color:#F1E3B4"/>
				<stop  offset="0.1689" style="stop-color:#F1E3B4"/>
				<stop  offset="0.1832" style="stop-color:#EFE1B1"/>
				<stop  offset="0.1947" style="stop-color:#EAD9A7"/>
				<stop  offset="0.2051" style="stop-color:#E2CD96"/>
				<stop  offset="0.273" style="stop-color:#AA8D52"/>
				<stop  offset="0.3228" style="stop-color:#886A38"/>
				<stop  offset="0.5445" style="stop-color:#886A38"/>
				<stop  offset="0.5899" style="stop-color:#E9D6A2"/>
				<stop  offset="0.6575" style="stop-color:#9B7C45"/>
				<stop  offset="0.8235" style="stop-color:#CAB076"/>
				<stop  offset="0.8537" style="stop-color:#E9D6A2"/>
				<stop  offset="0.8839" style="stop-color:#FCF6D4"/>
				<stop  offset="0.9291" style="stop-color:#FCF6D4"/>
				<stop  offset="0.9397" style="stop-color:#E7D59B"/>
				<stop  offset="0.9548" style="stop-color:#C5A86E"/>
				<stop  offset="0.9744" style="stop-color:#795B34"/>
				<stop  offset="1" style="stop-color:#795B34"/>
			</linearGradient>
			<path fill="url(#SVGID_10_)" d="M519.182,641.989L519.182,641.989c4.754,0,8.811,1.208,12.354,3.686
				c0.011,2.795-2.497,4.326-10.269,6.801c-1.411,0.449-2.762,0.88-4.028,1.358c-3.171-0.921-5.473-4.129-8.102-7.793
				c-0.496-0.691-0.997-1.389-1.512-2.081C511.882,642.637,515.696,641.989,519.182,641.989 M519.182,637.989
				c-6.174,0-12.509,1.806-18.393,4.179c5.544,5.07,8.718,14.688,16.82,15.826c6.871-2.938,19.901-4.217,17.674-14.499
				C530.365,639.506,524.841,637.989,519.182,637.989L519.182,637.989z"/>
		</g>
		<g>
			<linearGradient id="SVGID_11_" gradientUnits="userSpaceOnUse" x1="269.468" y1="668.4415" x2="316.992" y2="668.4415">
				<stop  offset="0" style="stop-color:#FCCA5B"/>
				<stop  offset="0.18" style="stop-color:#AD6C28"/>
				<stop  offset="0.51" style="stop-color:#FFF9AE"/>
				<stop  offset="0.6" style="stop-color:#935823"/>
				<stop  offset="0.82" style="stop-color:#DB994F"/>
				<stop  offset="1" style="stop-color:#FBE285"/>
			</linearGradient>
			<path fill="url(#SVGID_11_)" d="M269.468,657.283c8.292-4.501,16.442-9.429,25.444-12.367
				c11.703,3.127,15.541,16.11,22.08,24.923c-8.576,7.439-17.105,14.925-25.871,22.128
				C283.919,680.358,276.48,668.939,269.468,657.283z"/>
			<linearGradient id="SVGID_12_" gradientUnits="userSpaceOnUse" x1="269.468" y1="668.4415" x2="316.992" y2="668.4415">
				<stop  offset="0" style="stop-color:#88673C"/>
				<stop  offset="0.0332" style="stop-color:#6D542B"/>
				<stop  offset="0.0588" style="stop-color:#6D542B"/>
				<stop  offset="0.0814" style="stop-color:#8A6F3D"/>
				<stop  offset="0.1071" style="stop-color:#C0A367"/>
				<stop  offset="0.1086" style="stop-color:#C3A76B"/>
				<stop  offset="0.1238" style="stop-color:#DCC793"/>
				<stop  offset="0.1359" style="stop-color:#EBDCAB"/>
				<stop  offset="0.1433" style="stop-color:#F1E3B4"/>
				<stop  offset="0.1689" style="stop-color:#F1E3B4"/>
				<stop  offset="0.1832" style="stop-color:#EFE1B1"/>
				<stop  offset="0.1947" style="stop-color:#EAD9A7"/>
				<stop  offset="0.2051" style="stop-color:#E2CD96"/>
				<stop  offset="0.273" style="stop-color:#AA8D52"/>
				<stop  offset="0.3228" style="stop-color:#886A38"/>
				<stop  offset="0.5445" style="stop-color:#886A38"/>
				<stop  offset="0.5899" style="stop-color:#E9D6A2"/>
				<stop  offset="0.6575" style="stop-color:#9B7C45"/>
				<stop  offset="0.8235" style="stop-color:#CAB076"/>
				<stop  offset="0.8537" style="stop-color:#E9D6A2"/>
				<stop  offset="0.8839" style="stop-color:#FCF6D4"/>
				<stop  offset="0.9291" style="stop-color:#FCF6D4"/>
				<stop  offset="0.9397" style="stop-color:#E7D59B"/>
				<stop  offset="0.9548" style="stop-color:#C5A86E"/>
				<stop  offset="0.9744" style="stop-color:#795B34"/>
				<stop  offset="1" style="stop-color:#795B34"/>
			</linearGradient>
			<path fill="url(#SVGID_12_)" d="M294.969,649.119c6.223,2.207,9.805,8.355,13.586,14.845c1.005,1.725,2.031,3.486,3.123,5.193
				l-1.223,1.062c-5.992,5.207-12.156,10.563-18.362,15.748c-1.98-3.163-3.974-6.316-5.921-9.396
				c-3.68-5.821-7.464-11.808-11.119-17.791c0.194-0.108,0.389-0.215,0.583-0.323C282.148,654.854,288.319,651.44,294.969,649.119
				 M294.912,644.916c-9.002,2.938-17.152,7.866-25.444,12.367c7.012,11.656,14.451,23.075,21.653,34.684
				c8.766-7.203,17.295-14.689,25.871-22.128C310.453,661.026,306.615,648.043,294.912,644.916L294.912,644.916z"/>
		</g>
		<g>
			<linearGradient id="SVGID_13_" gradientUnits="userSpaceOnUse" x1="244.545" y1="694.478" x2="284.677" y2="694.478">
				<stop  offset="0" style="stop-color:#FCCA5B"/>
				<stop  offset="0.18" style="stop-color:#AD6C28"/>
				<stop  offset="0.51" style="stop-color:#FFF9AE"/>
				<stop  offset="0.6" style="stop-color:#935823"/>
				<stop  offset="0.82" style="stop-color:#DB994F"/>
				<stop  offset="1" style="stop-color:#FBE285"/>
			</linearGradient>
			<path fill="url(#SVGID_13_)" d="M244.545,682.443c5.923-7.107,14.31-11.324,21.985-16.252
				c6.491,10.614,15.731,20.327,18.147,32.883c-2.559,11.135-13.646,16.726-21.606,23.691
				C256.059,709.877,245.208,697.7,244.545,682.443z"/>
			<linearGradient id="SVGID_14_" gradientUnits="userSpaceOnUse" x1="244.545" y1="694.478" x2="284.677" y2="694.478">
				<stop  offset="0" style="stop-color:#88673C"/>
				<stop  offset="0.0332" style="stop-color:#6D542B"/>
				<stop  offset="0.0588" style="stop-color:#6D542B"/>
				<stop  offset="0.0814" style="stop-color:#8A6F3D"/>
				<stop  offset="0.1071" style="stop-color:#C0A367"/>
				<stop  offset="0.1086" style="stop-color:#C3A76B"/>
				<stop  offset="0.1238" style="stop-color:#DCC793"/>
				<stop  offset="0.1359" style="stop-color:#EBDCAB"/>
				<stop  offset="0.1433" style="stop-color:#F1E3B4"/>
				<stop  offset="0.1689" style="stop-color:#F1E3B4"/>
				<stop  offset="0.1832" style="stop-color:#EFE1B1"/>
				<stop  offset="0.1947" style="stop-color:#EAD9A7"/>
				<stop  offset="0.2051" style="stop-color:#E2CD96"/>
				<stop  offset="0.273" style="stop-color:#AA8D52"/>
				<stop  offset="0.3228" style="stop-color:#886A38"/>
				<stop  offset="0.5445" style="stop-color:#886A38"/>
				<stop  offset="0.5899" style="stop-color:#E9D6A2"/>
				<stop  offset="0.6575" style="stop-color:#9B7C45"/>
				<stop  offset="0.8235" style="stop-color:#CAB076"/>
				<stop  offset="0.8537" style="stop-color:#E9D6A2"/>
				<stop  offset="0.8839" style="stop-color:#FCF6D4"/>
				<stop  offset="0.9291" style="stop-color:#FCF6D4"/>
				<stop  offset="0.9397" style="stop-color:#E7D59B"/>
				<stop  offset="0.9548" style="stop-color:#C5A86E"/>
				<stop  offset="0.9744" style="stop-color:#795B34"/>
				<stop  offset="1" style="stop-color:#795B34"/>
			</linearGradient>
			<path fill="url(#SVGID_14_)" d="M265.296,671.681c1.241,1.867,2.526,3.703,3.784,5.501c5.006,7.154,9.745,13.926,11.493,21.797
				c-1.884,6.631-7.715,11.078-13.875,15.776c-0.83,0.633-1.67,1.274-2.507,1.926c-1.231-2.054-2.511-4.082-3.765-6.07
				c-5.582-8.847-10.87-17.228-11.776-26.784c4.151-4.508,9.502-7.779,15.142-11.225
				C264.288,672.298,264.791,671.991,265.296,671.681 M266.53,666.191c-7.675,4.928-16.062,9.145-21.985,16.252
				c0.663,15.257,11.514,27.434,18.526,40.322c7.96-6.965,19.047-12.556,21.606-23.691
				C282.261,686.518,273.021,676.805,266.53,666.191L266.53,666.191z"/>
		</g>
		<g>
			<linearGradient id="SVGID_15_" gradientUnits="userSpaceOnUse" x1="652.5239" y1="827.5425" x2="921.64" y2="827.5425">
				<stop  offset="0" style="stop-color:#FCCA5B"/>
				<stop  offset="0.18" style="stop-color:#AD6C28"/>
				<stop  offset="0.51" style="stop-color:#FFF9AE"/>
				<stop  offset="0.6" style="stop-color:#935823"/>
				<stop  offset="0.82" style="stop-color:#DB994F"/>
				<stop  offset="1" style="stop-color:#FBE285"/>
			</linearGradient>
			<path fill="url(#SVGID_15_)" d="M885.061,716.937c13.362,19.853,26.25,40.086,36.579,61.739
				c-6.586-2.085-13.078-4.264-19.569-6.491c2.559,25.966,9.334,51.173,15.731,76.381c4.407,20.28,2.748,41.46-0.9,61.692
				c-4.501,21.085-28.429,30.656-47.998,27.198c-9.524-5.259-15.352-14.878-21.985-23.123c-14.215,5.97-28.24,14.783-43.971,15.02
				c-9.003-4.691-16.205-12.367-25.586-16.394c-19.332-2.132-40.275-1.99-56.906-13.694c-17.626-10.187-15.684-33.263-20.99-50.273
				c-30.704,11.324-35.442,48.899-28.382,76.807c-3.933-0.995-11.846-2.938-15.778-3.933c-6.16-23.976-1.516-49.704,8.292-72.021
				c11.087-15.778,30.183-24.402,48.33-29.377c20.043,4.691,14.783,28.43,19.19,43.355c7.818,15.305,26.913,19.143,42.455,21.701
				c17.058,3.791,25.018-15.494,36.2-24.639c0.332,6.823,0.189,13.694,1.374,20.422c6.728,9.666,20.422,8.434,30.135,4.691
				c10.566-6.397,18.1-16.584,26.818-25.16c0.805,9.761,0.711,19.806,3.648,29.282c4.501,10.187,16.584,10.993,26.013,13.315
				c0.948-53.116-25.065-102.678-24.07-155.936C875.963,736.838,880.938,726.982,885.061,716.937z"/>
			<linearGradient id="SVGID_16_" gradientUnits="userSpaceOnUse" x1="652.5239" y1="827.5425" x2="921.64" y2="827.5425">
				<stop  offset="0" style="stop-color:#88673C"/>
				<stop  offset="0.0332" style="stop-color:#6D542B"/>
				<stop  offset="0.0588" style="stop-color:#6D542B"/>
				<stop  offset="0.0814" style="stop-color:#8A6F3D"/>
				<stop  offset="0.1071" style="stop-color:#C0A367"/>
				<stop  offset="0.1086" style="stop-color:#C3A76B"/>
				<stop  offset="0.1238" style="stop-color:#DCC793"/>
				<stop  offset="0.1359" style="stop-color:#EBDCAB"/>
				<stop  offset="0.1433" style="stop-color:#F1E3B4"/>
				<stop  offset="0.1689" style="stop-color:#F1E3B4"/>
				<stop  offset="0.1832" style="stop-color:#EFE1B1"/>
				<stop  offset="0.1947" style="stop-color:#EAD9A7"/>
				<stop  offset="0.2051" style="stop-color:#E2CD96"/>
				<stop  offset="0.273" style="stop-color:#AA8D52"/>
				<stop  offset="0.3228" style="stop-color:#886A38"/>
				<stop  offset="0.5445" style="stop-color:#886A38"/>
				<stop  offset="0.5899" style="stop-color:#E9D6A2"/>
				<stop  offset="0.6575" style="stop-color:#9B7C45"/>
				<stop  offset="0.8235" style="stop-color:#CAB076"/>
				<stop  offset="0.8537" style="stop-color:#E9D6A2"/>
				<stop  offset="0.8839" style="stop-color:#FCF6D4"/>
				<stop  offset="0.9291" style="stop-color:#FCF6D4"/>
				<stop  offset="0.9397" style="stop-color:#E7D59B"/>
				<stop  offset="0.9548" style="stop-color:#C5A86E"/>
				<stop  offset="0.9744" style="stop-color:#795B34"/>
				<stop  offset="1" style="stop-color:#795B34"/>
			</linearGradient>
			<path fill="url(#SVGID_16_)" d="M885.85,725.311c9.687,14.581,19.475,30.12,27.979,46.625c-3.214-1.066-6.663-2.232-10.461-3.535
				l-5.89-2.021l0.611,6.197c2.387,24.216,8.451,48.001,14.315,71.002c0.502,1.968,1.003,3.935,1.503,5.903
				c3.678,16.98,3.383,36.049-0.93,60.001c-3.654,16.947-21.237,24.665-36.044,24.665c-2.265,0-4.505-0.175-6.669-0.519
				c-6.491-3.785-11.147-9.928-16.068-16.422c-1.347-1.777-2.739-3.615-4.16-5.381l-1.888-2.347l-2.777,1.166
				c-3.462,1.454-6.939,3.085-10.302,4.663c-10.037,4.709-20.407,9.573-31.168,10.017c-3.439-1.897-6.643-4.259-10.02-6.747
				c-4.604-3.393-9.364-6.901-14.94-9.294l-0.547-0.235l-0.592-0.065c-3.232-0.356-6.55-0.654-9.76-0.942
				c-15.867-1.422-32.274-2.893-45.283-12.048l-0.146-0.103l-0.154-0.089c-11.152-6.445-13.387-19.075-15.754-32.445
				c-0.924-5.221-1.88-10.621-3.419-15.556l-1.253-4.018l-3.949,1.456c-30.16,11.123-37.71,45.482-32.274,75.12
				c-0.535-0.133-1.076-0.267-1.617-0.401c-1.948-0.483-3.897-0.966-5.563-1.383c-4.539-20.168-1.56-43.75,8.471-66.752
				c8.666-12.119,23.757-21.272,44.87-27.216c10.018,2.838,11.604,11.663,12.977,25.642c0.491,5.001,0.999,10.172,2.337,14.705
				l0.105,0.356l0.169,0.331c9.101,17.817,31.696,21.578,45.263,23.811c1.701,0.37,3.396,0.558,5.04,0.558
				c11.508,0,19.044-8.908,25.692-16.767c0.861-1.018,1.708-2.019,2.549-2.987c0.153,3.873,0.416,7.815,1.108,11.743l0.153,0.868
				l0.503,0.723c4.178,6.002,10.907,9.175,19.461,9.175c6.212,0,11.801-1.651,15.395-3.036l0.33-0.127l0.303-0.183
				c7.98-4.831,14.235-11.587,20.285-18.12c0.355-0.384,0.712-0.769,1.071-1.156c0.443,6.997,1.051,14.169,3.218,21.16l0.068,0.221
				l0.093,0.211c4.613,10.441,15.466,12.733,24.187,14.576c1.591,0.336,3.094,0.654,4.529,1.007l4.866,1.198l0.089-5.011
				c0.483-27.036-5.933-53.361-12.138-78.82c-6.076-24.931-12.358-50.707-11.939-76.725c1.677-7.635,4.777-14.807,8.056-22.394
				C885.777,725.482,885.814,725.396,885.85,725.311 M885.061,716.937c-4.123,10.045-9.098,19.901-11.37,30.562
				c-0.995,53.258,25.018,102.82,24.07,155.936c-9.429-2.322-21.512-3.128-26.013-13.315c-2.937-9.476-2.843-19.521-3.648-29.282
				c-8.718,8.576-16.252,18.763-26.818,25.16c-4.203,1.62-9.15,2.769-13.957,2.769c-6.302,0-12.361-1.976-16.178-7.46
				c-1.185-6.728-1.042-13.599-1.374-20.422c-10.202,8.343-17.721,25.126-31.915,25.126c-1.364,0-2.79-0.155-4.285-0.487
				c-15.542-2.558-34.637-6.396-42.455-21.701c-4.407-14.925,0.853-38.664-19.19-43.355c-18.147,4.975-37.243,13.599-48.33,29.377
				c-9.808,22.317-14.452,48.045-8.292,72.021c3.932,0.995,11.845,2.938,15.778,3.933c-7.06-27.908-2.322-65.483,28.382-76.807
				c5.306,17.01,3.364,40.086,20.99,50.273c16.631,11.704,37.574,11.562,56.906,13.694c9.381,4.027,16.583,11.703,25.586,16.394
				c15.731-0.237,29.756-9.05,43.971-15.02c6.633,8.245,12.461,17.864,21.985,23.123c2.618,0.463,5.312,0.692,8.029,0.692
				c17.592,0,36.07-9.626,39.969-27.89c3.648-20.232,5.307-41.412,0.9-61.692c-6.397-25.208-13.172-50.415-15.731-76.381
				c6.491,2.227,12.983,4.406,19.569,6.491C911.311,757.023,898.423,736.79,885.061,716.937L885.061,716.937z"/>
		</g>
		<g>
			<linearGradient id="SVGID_17_" gradientUnits="userSpaceOnUse" x1="703.349" y1="731.176" x2="721.828" y2="731.176">
				<stop  offset="0" style="stop-color:#FCCA5B"/>
				<stop  offset="0.18" style="stop-color:#AD6C28"/>
				<stop  offset="0.51" style="stop-color:#FFF9AE"/>
				<stop  offset="0.6" style="stop-color:#935823"/>
				<stop  offset="0.82" style="stop-color:#DB994F"/>
				<stop  offset="1" style="stop-color:#FBE285"/>
			</linearGradient>
			<path fill="url(#SVGID_17_)" d="M703.349,740.913c3.222-8.102,8.908-14.641,15.968-19.616c0.853,6.539,1.706,13.125,2.511,19.758
				C717.185,741.008,707.945,740.96,703.349,740.913z"/>
			<linearGradient id="SVGID_18_" gradientUnits="userSpaceOnUse" x1="703.349" y1="731.176" x2="721.828" y2="731.176">
				<stop  offset="0" style="stop-color:#88673C"/>
				<stop  offset="0.0332" style="stop-color:#6D542B"/>
				<stop  offset="0.0588" style="stop-color:#6D542B"/>
				<stop  offset="0.0814" style="stop-color:#8A6F3D"/>
				<stop  offset="0.1071" style="stop-color:#C0A367"/>
				<stop  offset="0.1086" style="stop-color:#C3A76B"/>
				<stop  offset="0.1238" style="stop-color:#DCC793"/>
				<stop  offset="0.1359" style="stop-color:#EBDCAB"/>
				<stop  offset="0.1433" style="stop-color:#F1E3B4"/>
				<stop  offset="0.1689" style="stop-color:#F1E3B4"/>
				<stop  offset="0.1832" style="stop-color:#EFE1B1"/>
				<stop  offset="0.1947" style="stop-color:#EAD9A7"/>
				<stop  offset="0.2051" style="stop-color:#E2CD96"/>
				<stop  offset="0.273" style="stop-color:#AA8D52"/>
				<stop  offset="0.3228" style="stop-color:#886A38"/>
				<stop  offset="0.5445" style="stop-color:#886A38"/>
				<stop  offset="0.5899" style="stop-color:#E9D6A2"/>
				<stop  offset="0.6575" style="stop-color:#9B7C45"/>
				<stop  offset="0.8235" style="stop-color:#CAB076"/>
				<stop  offset="0.8537" style="stop-color:#E9D6A2"/>
				<stop  offset="0.8839" style="stop-color:#FCF6D4"/>
				<stop  offset="0.9291" style="stop-color:#FCF6D4"/>
				<stop  offset="0.9397" style="stop-color:#E7D59B"/>
				<stop  offset="0.9548" style="stop-color:#C5A86E"/>
				<stop  offset="0.9744" style="stop-color:#795B34"/>
				<stop  offset="1" style="stop-color:#795B34"/>
			</linearGradient>
			<path fill="url(#SVGID_18_)" d="M716.275,728.939c0.342,2.656,0.686,5.357,1.025,8.078c-1.475-0.011-3.06-0.022-4.646-0.033
				c-0.97-0.007-1.94-0.013-2.884-0.02C711.524,734.078,713.696,731.398,716.275,728.939 M719.317,721.297
				c-7.06,4.975-12.746,11.514-15.968,19.616c4.596,0.047,13.836,0.095,18.479,0.142
				C721.023,734.422,720.17,727.836,719.317,721.297L719.317,721.297z"/>
		</g>
		<g>
			<linearGradient id="SVGID_19_" gradientUnits="userSpaceOnUse" x1="717.09" y1="750.9492" x2="750.5421" y2="750.9492">
				<stop  offset="0" style="stop-color:#FCCA5B"/>
				<stop  offset="0.18" style="stop-color:#AD6C28"/>
				<stop  offset="0.51" style="stop-color:#FFF9AE"/>
				<stop  offset="0.6" style="stop-color:#935823"/>
				<stop  offset="0.82" style="stop-color:#DB994F"/>
				<stop  offset="1" style="stop-color:#FBE285"/>
			</linearGradient>
			<path fill="url(#SVGID_19_)" d="M717.09,771.143c4.075-17.389,11.324-41.128,33.452-40.37
				C741.018,745.461,729.694,759.013,717.09,771.143z"/>
			<linearGradient id="SVGID_20_" gradientUnits="userSpaceOnUse" x1="717.09" y1="750.9492" x2="750.5421" y2="750.9492">
				<stop  offset="0" style="stop-color:#88673C"/>
				<stop  offset="0.0332" style="stop-color:#6D542B"/>
				<stop  offset="0.0588" style="stop-color:#6D542B"/>
				<stop  offset="0.0814" style="stop-color:#8A6F3D"/>
				<stop  offset="0.1071" style="stop-color:#C0A367"/>
				<stop  offset="0.1086" style="stop-color:#C3A76B"/>
				<stop  offset="0.1238" style="stop-color:#DCC793"/>
				<stop  offset="0.1359" style="stop-color:#EBDCAB"/>
				<stop  offset="0.1433" style="stop-color:#F1E3B4"/>
				<stop  offset="0.1689" style="stop-color:#F1E3B4"/>
				<stop  offset="0.1832" style="stop-color:#EFE1B1"/>
				<stop  offset="0.1947" style="stop-color:#EAD9A7"/>
				<stop  offset="0.2051" style="stop-color:#E2CD96"/>
				<stop  offset="0.273" style="stop-color:#AA8D52"/>
				<stop  offset="0.3228" style="stop-color:#886A38"/>
				<stop  offset="0.5445" style="stop-color:#886A38"/>
				<stop  offset="0.5899" style="stop-color:#E9D6A2"/>
				<stop  offset="0.6575" style="stop-color:#9B7C45"/>
				<stop  offset="0.8235" style="stop-color:#CAB076"/>
				<stop  offset="0.8537" style="stop-color:#E9D6A2"/>
				<stop  offset="0.8839" style="stop-color:#FCF6D4"/>
				<stop  offset="0.9291" style="stop-color:#FCF6D4"/>
				<stop  offset="0.9397" style="stop-color:#E7D59B"/>
				<stop  offset="0.9548" style="stop-color:#C5A86E"/>
				<stop  offset="0.9744" style="stop-color:#795B34"/>
				<stop  offset="1" style="stop-color:#795B34"/>
			</linearGradient>
			<path fill="url(#SVGID_20_)" d="M742.127,736.049c-5.109,7.198-10.705,14.154-16.748,20.819
				C728.957,747.186,734.047,739.093,742.127,736.049 M749.516,730.755c-21.327,0-28.414,23.27-32.426,40.388
				c12.604-12.13,23.928-25.682,33.452-40.37C750.196,730.761,749.854,730.755,749.516,730.755L749.516,730.755z"/>
		</g>
		<g>
			<linearGradient id="SVGID_21_" gradientUnits="userSpaceOnUse" x1="795.8914" y1="755.3885" x2="820.43" y2="755.3885">
				<stop  offset="0" style="stop-color:#FCCA5B"/>
				<stop  offset="0.18" style="stop-color:#AD6C28"/>
				<stop  offset="0.51" style="stop-color:#FFF9AE"/>
				<stop  offset="0.6" style="stop-color:#935823"/>
				<stop  offset="0.82" style="stop-color:#DB994F"/>
				<stop  offset="1" style="stop-color:#FBE285"/>
			</linearGradient>
			<path fill="url(#SVGID_21_)" d="M799.298,739.776c6.349,0.095,12.651,0.237,19,0.426c0.995,10.235,1.658,20.517,2.132,30.799
				c-7.534-2.132-16.063-2.464-22.412-7.439C793.044,756.17,798.209,747.499,799.298,739.776z"/>
			<linearGradient id="SVGID_22_" gradientUnits="userSpaceOnUse" x1="795.8914" y1="755.3885" x2="820.43" y2="755.3885">
				<stop  offset="0" style="stop-color:#88673C"/>
				<stop  offset="0.0332" style="stop-color:#6D542B"/>
				<stop  offset="0.0588" style="stop-color:#6D542B"/>
				<stop  offset="0.0814" style="stop-color:#8A6F3D"/>
				<stop  offset="0.1071" style="stop-color:#C0A367"/>
				<stop  offset="0.1086" style="stop-color:#C3A76B"/>
				<stop  offset="0.1238" style="stop-color:#DCC793"/>
				<stop  offset="0.1359" style="stop-color:#EBDCAB"/>
				<stop  offset="0.1433" style="stop-color:#F1E3B4"/>
				<stop  offset="0.1689" style="stop-color:#F1E3B4"/>
				<stop  offset="0.1832" style="stop-color:#EFE1B1"/>
				<stop  offset="0.1947" style="stop-color:#EAD9A7"/>
				<stop  offset="0.2051" style="stop-color:#E2CD96"/>
				<stop  offset="0.273" style="stop-color:#AA8D52"/>
				<stop  offset="0.3228" style="stop-color:#886A38"/>
				<stop  offset="0.5445" style="stop-color:#886A38"/>
				<stop  offset="0.5899" style="stop-color:#E9D6A2"/>
				<stop  offset="0.6575" style="stop-color:#9B7C45"/>
				<stop  offset="0.8235" style="stop-color:#CAB076"/>
				<stop  offset="0.8537" style="stop-color:#E9D6A2"/>
				<stop  offset="0.8839" style="stop-color:#FCF6D4"/>
				<stop  offset="0.9291" style="stop-color:#FCF6D4"/>
				<stop  offset="0.9397" style="stop-color:#E7D59B"/>
				<stop  offset="0.9548" style="stop-color:#C5A86E"/>
				<stop  offset="0.9744" style="stop-color:#795B34"/>
				<stop  offset="1" style="stop-color:#795B34"/>
			</linearGradient>
			<path fill="url(#SVGID_22_)" d="M802.571,743.83c4.02,0.071,8.014,0.16,12.073,0.27c0.61,6.792,1.114,13.98,1.527,21.773
				c-0.496-0.105-0.99-0.207-1.48-0.309c-5.099-1.059-9.927-2.062-13.677-4.753c-2.109-3.69-0.862-8.155,0.572-13.288
				C801.925,746.31,802.27,745.075,802.571,743.83 M799.298,739.776c-1.089,7.723-6.254,16.394-1.28,23.786
				c6.349,4.975,14.878,5.307,22.412,7.439c-0.474-10.282-1.137-20.564-2.132-30.799
				C811.949,740.013,805.647,739.871,799.298,739.776L799.298,739.776z"/>
		</g>
		<g>
			<linearGradient id="SVGID_23_" gradientUnits="userSpaceOnUse" x1="926.0283" y1="937.265" x2="1158.314" y2="937.265">
				<stop  offset="0" style="stop-color:#FCCA5B"/>
				<stop  offset="0.18" style="stop-color:#AD6C28"/>
				<stop  offset="0.51" style="stop-color:#FFF9AE"/>
				<stop  offset="0.6" style="stop-color:#935823"/>
				<stop  offset="0.82" style="stop-color:#DB994F"/>
				<stop  offset="1" style="stop-color:#FBE285"/>
			</linearGradient>
			<path fill="url(#SVGID_23_)" d="M927.705,784.694c24.828,7.534,46.293,22.554,64.345,40.986
				c-3.933,1.374-11.751,4.17-15.684,5.591c25.207,22.696,51.126,45.013,72.163,71.784c25.397,32.883,54.869,62.734,77.044,98.034
				c14.073,28.145,27.766,57.38,32.741,88.747c-17.958-17.531-26.392-41.649-40.796-61.692
				c-49.562-66.572-107.227-126.416-166.123-184.697c-7.96-7.96-17.058-15.115-22.981-24.828
				C924.009,807.817,926.899,795.876,927.705,784.694z"/>
			<linearGradient id="SVGID_24_" gradientUnits="userSpaceOnUse" x1="926.0283" y1="937.265" x2="1158.314" y2="937.265">
				<stop  offset="0" style="stop-color:#88673C"/>
				<stop  offset="0.0332" style="stop-color:#6D542B"/>
				<stop  offset="0.0588" style="stop-color:#6D542B"/>
				<stop  offset="0.0814" style="stop-color:#8A6F3D"/>
				<stop  offset="0.1071" style="stop-color:#C0A367"/>
				<stop  offset="0.1086" style="stop-color:#C3A76B"/>
				<stop  offset="0.1238" style="stop-color:#DCC793"/>
				<stop  offset="0.1359" style="stop-color:#EBDCAB"/>
				<stop  offset="0.1433" style="stop-color:#F1E3B4"/>
				<stop  offset="0.1689" style="stop-color:#F1E3B4"/>
				<stop  offset="0.1832" style="stop-color:#EFE1B1"/>
				<stop  offset="0.1947" style="stop-color:#EAD9A7"/>
				<stop  offset="0.2051" style="stop-color:#E2CD96"/>
				<stop  offset="0.273" style="stop-color:#AA8D52"/>
				<stop  offset="0.3228" style="stop-color:#886A38"/>
				<stop  offset="0.5445" style="stop-color:#886A38"/>
				<stop  offset="0.5899" style="stop-color:#E9D6A2"/>
				<stop  offset="0.6575" style="stop-color:#9B7C45"/>
				<stop  offset="0.8235" style="stop-color:#CAB076"/>
				<stop  offset="0.8537" style="stop-color:#E9D6A2"/>
				<stop  offset="0.8839" style="stop-color:#FCF6D4"/>
				<stop  offset="0.9291" style="stop-color:#FCF6D4"/>
				<stop  offset="0.9397" style="stop-color:#E7D59B"/>
				<stop  offset="0.9548" style="stop-color:#C5A86E"/>
				<stop  offset="0.9744" style="stop-color:#795B34"/>
				<stop  offset="1" style="stop-color:#795B34"/>
			</linearGradient>
			<path fill="url(#SVGID_24_)" d="M931.226,790.048c18.793,6.55,36.739,17.956,53.475,33.988c-3.517,1.252-7.33,2.619-9.694,3.473
				l-6.278,2.268l4.96,4.466c2.606,2.347,5.22,4.689,7.835,7.033c22.227,19.92,45.211,40.519,63.838,64.223
				c9.146,11.842,18.951,23.45,28.432,34.677c16.824,19.919,34.219,40.515,48.287,62.876c11.459,22.924,22.965,47.202,29.262,72.619
				c-5.743-7.769-10.526-16.304-15.491-25.166c-4.63-8.263-9.418-16.808-15.087-24.696l-0.02-0.027l-0.02-0.027
				c-50.628-68.003-109.952-129.176-166.503-185.137c-2.055-2.055-4.199-4.072-6.272-6.021
				c-6.075-5.713-11.818-11.114-15.951-17.782c-2.919-7.427-2.009-15.613-1.047-24.274
				C931.044,791.718,931.137,790.885,931.226,790.048 M927.705,784.694c-0.806,11.182-3.696,23.123,0.709,33.925
				c5.923,9.713,15.021,16.868,22.981,24.828c58.896,58.281,116.561,118.125,166.123,184.697
				c14.404,20.043,22.838,44.161,40.796,61.692c-4.975-31.367-18.668-60.602-32.741-88.747
				c-22.175-35.3-51.647-65.151-77.044-98.034c-21.037-26.771-46.956-49.088-72.163-71.784c3.933-1.421,11.751-4.217,15.684-5.591
				C973.998,807.248,952.533,792.228,927.705,784.694L927.705,784.694z"/>
		</g>
		<g>
			<linearGradient id="SVGID_25_" gradientUnits="userSpaceOnUse" x1="511.64" y1="855.2405" x2="555.854" y2="855.2405">
				<stop  offset="0" style="stop-color:#FCCA5B"/>
				<stop  offset="0.18" style="stop-color:#AD6C28"/>
				<stop  offset="0.51" style="stop-color:#FFF9AE"/>
				<stop  offset="0.6" style="stop-color:#935823"/>
				<stop  offset="0.82" style="stop-color:#DB994F"/>
				<stop  offset="1" style="stop-color:#FBE285"/>
			</linearGradient>
			<path fill="url(#SVGID_25_)" d="M511.64,855.057c8.102-10.377,12.983-28.477,28.856-27.908
				c7.676,7.771,13.788,17.863,15.21,28.809c2.085,16.584-18.384,19.901-28.856,27.387
				C521.922,873.821,516.899,864.344,511.64,855.057z"/>
			<linearGradient id="SVGID_26_" gradientUnits="userSpaceOnUse" x1="511.64" y1="855.2405" x2="555.854" y2="855.2405">
				<stop  offset="0" style="stop-color:#88673C"/>
				<stop  offset="0.0332" style="stop-color:#6D542B"/>
				<stop  offset="0.0588" style="stop-color:#6D542B"/>
				<stop  offset="0.0814" style="stop-color:#8A6F3D"/>
				<stop  offset="0.1071" style="stop-color:#C0A367"/>
				<stop  offset="0.1086" style="stop-color:#C3A76B"/>
				<stop  offset="0.1238" style="stop-color:#DCC793"/>
				<stop  offset="0.1359" style="stop-color:#EBDCAB"/>
				<stop  offset="0.1433" style="stop-color:#F1E3B4"/>
				<stop  offset="0.1689" style="stop-color:#F1E3B4"/>
				<stop  offset="0.1832" style="stop-color:#EFE1B1"/>
				<stop  offset="0.1947" style="stop-color:#EAD9A7"/>
				<stop  offset="0.2051" style="stop-color:#E2CD96"/>
				<stop  offset="0.273" style="stop-color:#AA8D52"/>
				<stop  offset="0.3228" style="stop-color:#886A38"/>
				<stop  offset="0.5445" style="stop-color:#886A38"/>
				<stop  offset="0.5899" style="stop-color:#E9D6A2"/>
				<stop  offset="0.6575" style="stop-color:#9B7C45"/>
				<stop  offset="0.8235" style="stop-color:#CAB076"/>
				<stop  offset="0.8537" style="stop-color:#E9D6A2"/>
				<stop  offset="0.8839" style="stop-color:#FCF6D4"/>
				<stop  offset="0.9291" style="stop-color:#FCF6D4"/>
				<stop  offset="0.9397" style="stop-color:#E7D59B"/>
				<stop  offset="0.9548" style="stop-color:#C5A86E"/>
				<stop  offset="0.9744" style="stop-color:#795B34"/>
				<stop  offset="1" style="stop-color:#795B34"/>
			</linearGradient>
			<path fill="url(#SVGID_26_)" d="M538.811,831.168c7.233,7.733,11.805,16.663,12.926,25.289
				c1.082,8.61-5.528,12.455-16.543,17.764c-2.28,1.099-4.608,2.221-6.789,3.441c-4.512-8.657-8.327-15.743-12.016-22.324
				c1.643-2.379,3.161-4.968,4.64-7.492C525.882,839.565,530.474,831.727,538.811,831.168 M539.77,827.136
				c-15.297,0.001-20.153,17.704-28.13,27.921c5.259,9.287,10.282,18.764,15.21,28.288c10.472-7.486,30.941-10.803,28.856-27.387
				c-1.422-10.946-7.534-21.038-15.21-28.809C540.251,827.14,540.01,827.136,539.77,827.136L539.77,827.136z"/>
		</g>
		<g>
			<linearGradient id="SVGID_27_" gradientUnits="userSpaceOnUse" x1="571.672" y1="852.9398" x2="651.133" y2="852.9398">
				<stop  offset="0" style="stop-color:#FCCA5B"/>
				<stop  offset="0.18" style="stop-color:#AD6C28"/>
				<stop  offset="0.51" style="stop-color:#FFF9AE"/>
				<stop  offset="0.6" style="stop-color:#935823"/>
				<stop  offset="0.82" style="stop-color:#DB994F"/>
				<stop  offset="1" style="stop-color:#FBE285"/>
			</linearGradient>
			<path fill="url(#SVGID_27_)" d="M600.955,830.086c17.721-6.302,35.253,3.933,50.178,12.556
				c-8.766,12.841-17.674,26.818-32.031,33.973c-15.731,2.985-31.936-0.569-47.43-3.412c10.566-7.392,23.075-10.898,35.11-15.162
				c-11.277-1.564-22.602-2.796-33.831-4.264C581.766,845.344,590.342,836.341,600.955,830.086z"/>
			<linearGradient id="SVGID_28_" gradientUnits="userSpaceOnUse" x1="571.672" y1="852.9398" x2="651.133" y2="852.9398">
				<stop  offset="0" style="stop-color:#88673C"/>
				<stop  offset="0.0332" style="stop-color:#6D542B"/>
				<stop  offset="0.0588" style="stop-color:#6D542B"/>
				<stop  offset="0.0814" style="stop-color:#8A6F3D"/>
				<stop  offset="0.1071" style="stop-color:#C0A367"/>
				<stop  offset="0.1086" style="stop-color:#C3A76B"/>
				<stop  offset="0.1238" style="stop-color:#DCC793"/>
				<stop  offset="0.1359" style="stop-color:#EBDCAB"/>
				<stop  offset="0.1433" style="stop-color:#F1E3B4"/>
				<stop  offset="0.1689" style="stop-color:#F1E3B4"/>
				<stop  offset="0.1832" style="stop-color:#EFE1B1"/>
				<stop  offset="0.1947" style="stop-color:#EAD9A7"/>
				<stop  offset="0.2051" style="stop-color:#E2CD96"/>
				<stop  offset="0.273" style="stop-color:#AA8D52"/>
				<stop  offset="0.3228" style="stop-color:#886A38"/>
				<stop  offset="0.5445" style="stop-color:#886A38"/>
				<stop  offset="0.5899" style="stop-color:#E9D6A2"/>
				<stop  offset="0.6575" style="stop-color:#9B7C45"/>
				<stop  offset="0.8235" style="stop-color:#CAB076"/>
				<stop  offset="0.8537" style="stop-color:#E9D6A2"/>
				<stop  offset="0.8839" style="stop-color:#FCF6D4"/>
				<stop  offset="0.9291" style="stop-color:#FCF6D4"/>
				<stop  offset="0.9397" style="stop-color:#E7D59B"/>
				<stop  offset="0.9548" style="stop-color:#C5A86E"/>
				<stop  offset="0.9744" style="stop-color:#795B34"/>
				<stop  offset="1" style="stop-color:#795B34"/>
			</linearGradient>
			<path fill="url(#SVGID_28_)" d="M612.398,832.134c11.281,0,22.679,5.925,33.003,11.823c-7.681,11.284-15.739,22.723-27.591,28.83
				c-3.593,0.645-7.342,0.959-11.438,0.959c-7.697,0-15.57-1.143-23.327-2.516c5.945-2.861,12.317-5.037,18.929-7.294
				c2.015-0.688,4.099-1.399,6.144-2.124l15.464-5.479l-16.25-2.254c-6.541-0.907-13.185-1.714-19.61-2.494
				c-1.975-0.24-3.979-0.483-5.991-0.731c6.495-6.27,13.256-12.541,20.921-17.124C605.793,832.657,608.985,832.134,612.398,832.134
				L612.398,832.134 M612.397,828.134c-3.789,0-7.611,0.59-11.442,1.952c-10.613,6.255-19.189,15.258-28.004,23.691
				c11.229,1.468,22.554,2.7,33.831,4.264c-12.035,4.264-24.544,7.77-35.11,15.162c11.341,2.081,23.061,4.542,34.699,4.542
				c4.262,0,8.514-0.33,12.731-1.13c14.357-7.155,23.265-21.132,32.031-33.973C639.435,835.883,626.135,828.134,612.397,828.134
				L612.397,828.134z"/>
		</g>
		<g>
			<linearGradient id="SVGID_29_" gradientUnits="userSpaceOnUse" x1="812.329" y1="872.494" x2="845.07" y2="872.494">
				<stop  offset="0" style="stop-color:#FCCA5B"/>
				<stop  offset="0.18" style="stop-color:#AD6C28"/>
				<stop  offset="0.51" style="stop-color:#FFF9AE"/>
				<stop  offset="0.6" style="stop-color:#935823"/>
				<stop  offset="0.82" style="stop-color:#DB994F"/>
				<stop  offset="1" style="stop-color:#FBE285"/>
			</linearGradient>
			<path fill="url(#SVGID_29_)" d="M812.329,869.13c4.501-4.028,9.05-8.008,13.599-11.988c6.397,4.406,12.746,8.86,19.142,13.409
				c-6.586,7.25-14.499,13.078-23.312,17.295C818.583,881.591,815.456,875.337,812.329,869.13z"/>
			<linearGradient id="SVGID_30_" gradientUnits="userSpaceOnUse" x1="812.329" y1="872.494" x2="845.07" y2="872.494">
				<stop  offset="0" style="stop-color:#88673C"/>
				<stop  offset="0.0332" style="stop-color:#6D542B"/>
				<stop  offset="0.0588" style="stop-color:#6D542B"/>
				<stop  offset="0.0814" style="stop-color:#8A6F3D"/>
				<stop  offset="0.1071" style="stop-color:#C0A367"/>
				<stop  offset="0.1086" style="stop-color:#C3A76B"/>
				<stop  offset="0.1238" style="stop-color:#DCC793"/>
				<stop  offset="0.1359" style="stop-color:#EBDCAB"/>
				<stop  offset="0.1433" style="stop-color:#F1E3B4"/>
				<stop  offset="0.1689" style="stop-color:#F1E3B4"/>
				<stop  offset="0.1832" style="stop-color:#EFE1B1"/>
				<stop  offset="0.1947" style="stop-color:#EAD9A7"/>
				<stop  offset="0.2051" style="stop-color:#E2CD96"/>
				<stop  offset="0.273" style="stop-color:#AA8D52"/>
				<stop  offset="0.3228" style="stop-color:#886A38"/>
				<stop  offset="0.5445" style="stop-color:#886A38"/>
				<stop  offset="0.5899" style="stop-color:#E9D6A2"/>
				<stop  offset="0.6575" style="stop-color:#9B7C45"/>
				<stop  offset="0.8235" style="stop-color:#CAB076"/>
				<stop  offset="0.8537" style="stop-color:#E9D6A2"/>
				<stop  offset="0.8839" style="stop-color:#FCF6D4"/>
				<stop  offset="0.9291" style="stop-color:#FCF6D4"/>
				<stop  offset="0.9397" style="stop-color:#E7D59B"/>
				<stop  offset="0.9548" style="stop-color:#C5A86E"/>
				<stop  offset="0.9744" style="stop-color:#795B34"/>
				<stop  offset="1" style="stop-color:#795B34"/>
			</linearGradient>
			<path fill="url(#SVGID_30_)" d="M826.218,862.203c4.137,2.863,8.346,5.809,12.737,8.915c-4.591,4.445-9.762,8.242-15.442,11.34
				c-1.504-2.977-2.999-5.952-4.49-8.919c-0.581-1.156-1.162-2.312-1.742-3.465C820.252,867.434,823.257,864.796,826.218,862.203
				 M825.928,857.142c-4.549,3.98-9.098,7.96-13.599,11.988c3.127,6.207,6.254,12.461,9.429,18.716
				c8.813-4.217,16.726-10.045,23.312-17.295C838.674,866.002,832.325,861.548,825.928,857.142L825.928,857.142z"/>
		</g>
		<g>
			<linearGradient id="SVGID_31_" gradientUnits="userSpaceOnUse" x1="926.947" y1="1003.4355" x2="1143.295" y2="1003.4355">
				<stop  offset="0" style="stop-color:#FCCA5B"/>
				<stop  offset="0.18" style="stop-color:#AD6C28"/>
				<stop  offset="0.51" style="stop-color:#FFF9AE"/>
				<stop  offset="0.6" style="stop-color:#935823"/>
				<stop  offset="0.82" style="stop-color:#DB994F"/>
				<stop  offset="1" style="stop-color:#FBE285"/>
			</linearGradient>
			<path fill="url(#SVGID_31_)" d="M926.947,866.524c20.422,8.813,41.697,17.911,57.664,33.926
				c9.334,9.145,9.808,23.644,18.763,33.12c15.305,16.299,31.036,32.173,44.871,49.799c32.978,37.385,66.525,75.622,87.042,121.631
				c4.928,11.135,6.254,23.36,8.008,35.347c-30.183-40.749-61.976-80.266-96.139-117.745
				c-31.509-40.891-69.226-76.238-104.147-114.097C931.685,897.512,929.742,881.212,926.947,866.524z"/>
			<linearGradient id="SVGID_32_" gradientUnits="userSpaceOnUse" x1="926.947" y1="1003.4355" x2="1143.295" y2="1003.4355">
				<stop  offset="0" style="stop-color:#88673C"/>
				<stop  offset="0.0332" style="stop-color:#6D542B"/>
				<stop  offset="0.0588" style="stop-color:#6D542B"/>
				<stop  offset="0.0814" style="stop-color:#8A6F3D"/>
				<stop  offset="0.1071" style="stop-color:#C0A367"/>
				<stop  offset="0.1086" style="stop-color:#C3A76B"/>
				<stop  offset="0.1238" style="stop-color:#DCC793"/>
				<stop  offset="0.1359" style="stop-color:#EBDCAB"/>
				<stop  offset="0.1433" style="stop-color:#F1E3B4"/>
				<stop  offset="0.1689" style="stop-color:#F1E3B4"/>
				<stop  offset="0.1832" style="stop-color:#EFE1B1"/>
				<stop  offset="0.1947" style="stop-color:#EAD9A7"/>
				<stop  offset="0.2051" style="stop-color:#E2CD96"/>
				<stop  offset="0.273" style="stop-color:#AA8D52"/>
				<stop  offset="0.3228" style="stop-color:#886A38"/>
				<stop  offset="0.5445" style="stop-color:#886A38"/>
				<stop  offset="0.5899" style="stop-color:#E9D6A2"/>
				<stop  offset="0.6575" style="stop-color:#9B7C45"/>
				<stop  offset="0.8235" style="stop-color:#CAB076"/>
				<stop  offset="0.8537" style="stop-color:#E9D6A2"/>
				<stop  offset="0.8839" style="stop-color:#FCF6D4"/>
				<stop  offset="0.9291" style="stop-color:#FCF6D4"/>
				<stop  offset="0.9397" style="stop-color:#E7D59B"/>
				<stop  offset="0.9548" style="stop-color:#C5A86E"/>
				<stop  offset="0.9744" style="stop-color:#795B34"/>
				<stop  offset="1" style="stop-color:#795B34"/>
			</linearGradient>
			<path fill="url(#SVGID_32_)" d="M932.242,873.175c17.917,7.818,35.871,16.392,49.57,30.132c4.181,4.097,6.418,9.636,8.786,15.501
				c2.448,6.064,4.98,12.334,9.861,17.5c2.897,3.085,5.81,6.156,8.722,9.226c12.199,12.86,24.814,26.158,35.918,40.305l0.071,0.09
				l0.076,0.086c32.415,36.747,65.934,74.745,86.384,120.604c2.58,5.829,4.142,12.134,5.305,18.534
				c-29.292-38.847-57.756-73.35-86.711-105.124c-21.818-28.295-46.922-54.3-71.201-79.452
				c-10.933-11.326-22.239-23.039-33.073-34.784l-0.075-0.081l-0.079-0.077C937.217,897.308,934.478,885.209,932.242,873.175
				 M926.947,866.524c2.795,14.688,4.738,30.988,16.062,41.981c34.921,37.859,72.638,73.206,104.147,114.097
				c34.163,37.479,65.956,76.996,96.139,117.745c-1.754-11.987-3.08-24.212-8.008-35.347
				c-20.517-46.009-54.064-84.246-87.042-121.631c-13.835-17.626-29.566-33.5-44.871-49.799c-8.955-9.476-9.429-23.975-18.763-33.12
				C968.644,884.435,947.369,875.337,926.947,866.524L926.947,866.524z"/>
		</g>
		<g>
			<linearGradient id="SVGID_33_" gradientUnits="userSpaceOnUse" x1="914.154" y1="1072.6605" x2="1135.287" y2="1072.6605">
				<stop  offset="0" style="stop-color:#FCCA5B"/>
				<stop  offset="0.18" style="stop-color:#AD6C28"/>
				<stop  offset="0.51" style="stop-color:#FFF9AE"/>
				<stop  offset="0.6" style="stop-color:#935823"/>
				<stop  offset="0.82" style="stop-color:#DB994F"/>
				<stop  offset="1" style="stop-color:#FBE285"/>
			</linearGradient>
			<path fill="url(#SVGID_33_)" d="M914.154,927.173c25.16,9.619,49.515,22.554,68.041,42.502
				c-3.601,1.706-10.756,5.117-14.357,6.823c45.203,51.789,98.65,96.897,136.793,154.656c12.983,27.861,24.213,56.812,30.656,86.994
				c-10.993-11.419-19.379-24.923-26.866-38.806c-26.25-46.34-65.909-82.588-100.403-122.484
				c-24.497-24.449-48.425-49.515-73.064-73.822c-7.107-7.486-14.357-15.115-19.048-24.402
				C913.68,948.306,914.391,937.692,914.154,927.173z"/>
			<linearGradient id="SVGID_34_" gradientUnits="userSpaceOnUse" x1="914.154" y1="1072.6605" x2="1135.287" y2="1072.6605">
				<stop  offset="0" style="stop-color:#88673C"/>
				<stop  offset="0.0332" style="stop-color:#6D542B"/>
				<stop  offset="0.0588" style="stop-color:#6D542B"/>
				<stop  offset="0.0814" style="stop-color:#8A6F3D"/>
				<stop  offset="0.1071" style="stop-color:#C0A367"/>
				<stop  offset="0.1086" style="stop-color:#C3A76B"/>
				<stop  offset="0.1238" style="stop-color:#DCC793"/>
				<stop  offset="0.1359" style="stop-color:#EBDCAB"/>
				<stop  offset="0.1433" style="stop-color:#F1E3B4"/>
				<stop  offset="0.1689" style="stop-color:#F1E3B4"/>
				<stop  offset="0.1832" style="stop-color:#EFE1B1"/>
				<stop  offset="0.1947" style="stop-color:#EAD9A7"/>
				<stop  offset="0.2051" style="stop-color:#E2CD96"/>
				<stop  offset="0.273" style="stop-color:#AA8D52"/>
				<stop  offset="0.3228" style="stop-color:#886A38"/>
				<stop  offset="0.5445" style="stop-color:#886A38"/>
				<stop  offset="0.5899" style="stop-color:#E9D6A2"/>
				<stop  offset="0.6575" style="stop-color:#9B7C45"/>
				<stop  offset="0.8235" style="stop-color:#CAB076"/>
				<stop  offset="0.8537" style="stop-color:#E9D6A2"/>
				<stop  offset="0.8839" style="stop-color:#FCF6D4"/>
				<stop  offset="0.9291" style="stop-color:#FCF6D4"/>
				<stop  offset="0.9397" style="stop-color:#E7D59B"/>
				<stop  offset="0.9548" style="stop-color:#C5A86E"/>
				<stop  offset="0.9744" style="stop-color:#795B34"/>
				<stop  offset="1" style="stop-color:#795B34"/>
			</linearGradient>
			<path fill="url(#SVGID_34_)" d="M918.213,933.068c24.528,9.93,42.948,21.318,57.225,35.389c-0.704,0.335-1.425,0.678-2.146,1.021
				c-2.685,1.277-5.369,2.554-7.167,3.406l-4.777,2.263l3.476,3.982c15.805,18.108,32.86,35.656,49.353,52.627
				c30.638,31.525,62.317,64.12,86.952,101.357c11.888,25.54,20.39,47.969,26.204,69.271c-6.312-8.63-11.372-17.484-15.393-24.939
				l-0.02-0.037l-0.02-0.036c-19.312-34.092-46.056-63.068-71.919-91.09c-9.619-10.421-19.565-21.198-28.938-32.039l-0.096-0.111
				l-0.104-0.104c-10.923-10.902-21.922-22.119-32.559-32.968c-13.19-13.452-26.83-27.363-40.475-40.825
				c-6.723-7.082-13.67-14.401-18.1-22.947c-1.487-7.231-1.491-14.607-1.496-22.405
				C918.214,934.282,918.214,933.677,918.213,933.068 M914.154,927.173c0.237,10.519-0.474,21.133,1.752,31.461
				c4.691,9.287,11.941,16.916,19.048,24.402c24.639,24.307,48.567,49.373,73.064,73.822
				c34.494,39.896,74.153,76.144,100.403,122.484c7.487,13.883,15.873,27.387,26.866,38.806
				c-6.443-30.182-17.673-59.133-30.656-86.994c-38.143-57.759-91.59-102.867-136.793-154.656
				c3.601-1.706,10.756-5.117,14.357-6.823C963.669,949.727,939.314,936.792,914.154,927.173L914.154,927.173z"/>
		</g>
		<g>
			<linearGradient id="SVGID_35_" gradientUnits="userSpaceOnUse" x1="781.814" y1="973.863" x2="839.2891" y2="973.863">
				<stop  offset="0" style="stop-color:#FCCA5B"/>
				<stop  offset="0.18" style="stop-color:#AD6C28"/>
				<stop  offset="0.51" style="stop-color:#FFF9AE"/>
				<stop  offset="0.6" style="stop-color:#935823"/>
				<stop  offset="0.82" style="stop-color:#DB994F"/>
				<stop  offset="1" style="stop-color:#FBE285"/>
			</linearGradient>
			<path fill="url(#SVGID_35_)" d="M781.814,977.825c0.284-11.23,9.903-20.138,16.679-28.477c16.868-6.16,30.04,8.908,40.796,19.474
				c-8.434,10.898-17.484,21.322-27.245,30.988C801.762,992.798,790.959,986.306,781.814,977.825z"/>
			<linearGradient id="SVGID_36_" gradientUnits="userSpaceOnUse" x1="781.814" y1="973.863" x2="839.2891" y2="973.863">
				<stop  offset="0" style="stop-color:#88673C"/>
				<stop  offset="0.0332" style="stop-color:#6D542B"/>
				<stop  offset="0.0588" style="stop-color:#6D542B"/>
				<stop  offset="0.0814" style="stop-color:#8A6F3D"/>
				<stop  offset="0.1071" style="stop-color:#C0A367"/>
				<stop  offset="0.1086" style="stop-color:#C3A76B"/>
				<stop  offset="0.1238" style="stop-color:#DCC793"/>
				<stop  offset="0.1359" style="stop-color:#EBDCAB"/>
				<stop  offset="0.1433" style="stop-color:#F1E3B4"/>
				<stop  offset="0.1689" style="stop-color:#F1E3B4"/>
				<stop  offset="0.1832" style="stop-color:#EFE1B1"/>
				<stop  offset="0.1947" style="stop-color:#EAD9A7"/>
				<stop  offset="0.2051" style="stop-color:#E2CD96"/>
				<stop  offset="0.273" style="stop-color:#AA8D52"/>
				<stop  offset="0.3228" style="stop-color:#886A38"/>
				<stop  offset="0.5445" style="stop-color:#886A38"/>
				<stop  offset="0.5899" style="stop-color:#E9D6A2"/>
				<stop  offset="0.6575" style="stop-color:#9B7C45"/>
				<stop  offset="0.8235" style="stop-color:#CAB076"/>
				<stop  offset="0.8537" style="stop-color:#E9D6A2"/>
				<stop  offset="0.8839" style="stop-color:#FCF6D4"/>
				<stop  offset="0.9291" style="stop-color:#FCF6D4"/>
				<stop  offset="0.9397" style="stop-color:#E7D59B"/>
				<stop  offset="0.9548" style="stop-color:#C5A86E"/>
				<stop  offset="0.9744" style="stop-color:#795B34"/>
				<stop  offset="1" style="stop-color:#795B34"/>
			</linearGradient>
			<path fill="url(#SVGID_36_)" d="M806.348,947.916v4h0c10.314,0,19.481,9.143,27.569,17.21c0.01,0.01,0.021,0.021,0.031,0.031
				c-7.291,9.227-14.807,17.779-22.404,25.488c-1.373-0.92-2.747-1.832-4.094-2.726c-7.34-4.87-14.912-9.894-21.499-15.742
				c0.956-7.165,6.507-13.611,11.887-19.86c1.003-1.165,2.033-2.361,3.018-3.547c1.834-0.567,3.676-0.854,5.489-0.855
				L806.348,947.916 M806.346,947.916c-2.525,0-5.143,0.442-7.853,1.432c-6.776,8.339-16.395,17.247-16.679,28.477
				c9.145,8.481,19.948,14.973,30.23,21.985c9.761-9.666,18.811-20.09,27.245-30.988
				C830.262,959.954,819.534,947.915,806.346,947.916L806.346,947.916z"/>
		</g>
		<linearGradient id="SVGID_37_" gradientUnits="userSpaceOnUse" x1="449.2371" y1="1318.6104" x2="814.2379" y2="1318.6104">
			<stop  offset="0" style="stop-color:#FCCA5B"/>
			<stop  offset="0.18" style="stop-color:#AD6C28"/>
			<stop  offset="0.51" style="stop-color:#FFF9AE"/>
			<stop  offset="0.6" style="stop-color:#935823"/>
			<stop  offset="0.82" style="stop-color:#DB994F"/>
			<stop  offset="1" style="stop-color:#FBE285"/>
		</linearGradient>
		<linearGradient id="SVGID_38_" gradientUnits="userSpaceOnUse" x1="443.4661" y1="1317.6299" x2="816.2379" y2="1317.6299">
			<stop  offset="0" style="stop-color:#88673C"/>
			<stop  offset="0.0332" style="stop-color:#6D542B"/>
			<stop  offset="0.0588" style="stop-color:#6D542B"/>
			<stop  offset="0.0814" style="stop-color:#8A6F3D"/>
			<stop  offset="0.1071" style="stop-color:#C0A367"/>
			<stop  offset="0.1086" style="stop-color:#C3A76B"/>
			<stop  offset="0.1238" style="stop-color:#DCC793"/>
			<stop  offset="0.1359" style="stop-color:#EBDCAB"/>
			<stop  offset="0.1433" style="stop-color:#F1E3B4"/>
			<stop  offset="0.1689" style="stop-color:#F1E3B4"/>
			<stop  offset="0.1832" style="stop-color:#EFE1B1"/>
			<stop  offset="0.1947" style="stop-color:#EAD9A7"/>
			<stop  offset="0.2051" style="stop-color:#E2CD96"/>
			<stop  offset="0.273" style="stop-color:#AA8D52"/>
			<stop  offset="0.3228" style="stop-color:#886A38"/>
			<stop  offset="0.5445" style="stop-color:#886A38"/>
			<stop  offset="0.5899" style="stop-color:#E9D6A2"/>
			<stop  offset="0.6575" style="stop-color:#9B7C45"/>
			<stop  offset="0.8235" style="stop-color:#CAB076"/>
			<stop  offset="0.8537" style="stop-color:#E9D6A2"/>
			<stop  offset="0.8839" style="stop-color:#FCF6D4"/>
			<stop  offset="0.9291" style="stop-color:#FCF6D4"/>
			<stop  offset="0.9397" style="stop-color:#E7D59B"/>
			<stop  offset="0.9548" style="stop-color:#C5A86E"/>
			<stop  offset="0.9744" style="stop-color:#795B34"/>
			<stop  offset="1" style="stop-color:#795B34"/>
		</linearGradient>
		<path fill="url(#SVGID_37_)" stroke="url(#SVGID_38_)" stroke-width="4" stroke-miterlimit="10" d="M700.411,1035.632
			c2.748-15.21,6.681-30.325,14.783-43.639c10.14,18.053,21.085,36.011,27.577,55.817c3.885,12.177-9.713,22.412-5.97,34.873
			c20.09,101.399,49.183,200.712,72.637,301.352c8.292,33.073,5.259,67.994-4.643,100.356
			c-2.796,11.846-15.731,16.063-24.497,22.602c2.369,35.063-18.053,66.714-45.013,87.373
			c-35.489,28.145-77.802,57.048-125.563,49.704c-22.08-0.758-33.31-22.27-45.298-37.622c-18.384,3.175-37.006,4.359-55.627,5.496
			c-20.185,1.279-39.517,7.913-59.56,10.14c8.624-8.055,18.432-14.831,29.614-18.669c29.472-11.087,58.896-22.27,88.321-33.594
			c4.833-38.285,13.078-79.318,41.081-107.937c-10.519,32.362-25.397,63.919-26.676,98.603c27.292-8.813,50.51-25.918,75.054-40.085
			c12.699-8.197,27.34-15.921,33.831-30.372c-1.943-20.469-17.295-36.579-20.327-56.575c1.753-9.524,7.297-17.768,11.609-26.25
			c12.462,10.187,26.203,19.379,42.549,21.511c11.467-37.574-5.449-75.67-8.955-113.197
			c-15.02-76.807-26.771-154.183-42.028-230.942c-2.796-19.474-6.112-39.043-5.591-58.754c-0.569-11.609,9.24-19.474,15.542-27.956
			C689.039,1010.424,694.631,1023.075,700.411,1035.632 M699.369,1062.166c-0.711,18.716,3.032,37.148,6.586,55.39
			c8.86,43.071,16.584,86.378,26.06,129.354c9.05,53.211,22.601,105.805,26.013,159.868c1.706,16.868-11.135,29.993-15.494,45.393
			c7.913,12.698,28.903,26.345,40.465,10.235c10.235-16.489,7.723-38.096,3.933-56.385
			c-25.729-104.668-49.325-209.857-75.243-314.525C709.461,1081.024,705.292,1071.074,699.369,1062.166 M708.656,1464.159
			c0.284,22.554,3.459,49.088-12.793,67.188c-30.846,28.24-69.889,44.776-104.763,67.188c18.763,10.566,40.749,10.803,60.507,2.89
			c34.021-12.177,72.021-22.933,95.191-52.737c13.409-16.11,1.469-37.479-7.96-52.405c-8.245-10.756-9.334-24.307-9.524-37.337
			C722.444,1460.747,715.526,1462.453,708.656,1464.159z"/>
	</g>
	<g>
		<linearGradient id="SVGID_39_" gradientUnits="userSpaceOnUse" x1="747.1359" y1="598.7786" x2="798.0281" y2="598.7786">
			<stop  offset="0" style="stop-color:#FCCA5B"/>
			<stop  offset="0.18" style="stop-color:#AD6C28"/>
			<stop  offset="0.51" style="stop-color:#FFF9AE"/>
			<stop  offset="0.6" style="stop-color:#935823"/>
			<stop  offset="0.82" style="stop-color:#DB994F"/>
			<stop  offset="1" style="stop-color:#FBE285"/>
		</linearGradient>
		<path fill="url(#SVGID_39_)" d="M773.376,617.765c-22.008-1.511-27.738-7.253-25.928-25.302c0.333-3.317,0.399-6.63,3.849-7.427
			c3.207-0.741,5.784,1.27,7.357,4.437c1.759,3.543-1.366,10.871,6.451,9.389c1.051-0.199,1.148-6.965,1.157-10.691
			c0.009-3.622-2.22-8.785,3.792-8.552c4.662,0.181,5.205,4.862,4.809,9.079c-0.452,4.815-0.149,10.372,5.988,10.132
			c5.31-0.207,3.292-6.029,4.086-9.542c0.62-2.743-0.559-6.916,4.132-6.716c3.497,0.149,4.909,3.07,5.982,6.234
			C802.514,610.816,796.183,619.33,773.376,617.765z"/>
		<linearGradient id="SVGID_40_" gradientUnits="userSpaceOnUse" x1="747.1359" y1="598.7786" x2="798.0279" y2="598.7786">
			<stop  offset="0" style="stop-color:#88673C"/>
			<stop  offset="0.0332" style="stop-color:#6D542B"/>
			<stop  offset="0.0588" style="stop-color:#6D542B"/>
			<stop  offset="0.0814" style="stop-color:#8A6F3D"/>
			<stop  offset="0.1071" style="stop-color:#C0A367"/>
			<stop  offset="0.1086" style="stop-color:#C3A76B"/>
			<stop  offset="0.1238" style="stop-color:#DCC793"/>
			<stop  offset="0.1359" style="stop-color:#EBDCAB"/>
			<stop  offset="0.1433" style="stop-color:#F1E3B4"/>
			<stop  offset="0.1689" style="stop-color:#F1E3B4"/>
			<stop  offset="0.1832" style="stop-color:#EFE1B1"/>
			<stop  offset="0.1947" style="stop-color:#EAD9A7"/>
			<stop  offset="0.2051" style="stop-color:#E2CD96"/>
			<stop  offset="0.273" style="stop-color:#AA8D52"/>
			<stop  offset="0.3228" style="stop-color:#886A38"/>
			<stop  offset="0.5445" style="stop-color:#886A38"/>
			<stop  offset="0.5899" style="stop-color:#E9D6A2"/>
			<stop  offset="0.6575" style="stop-color:#9B7C45"/>
			<stop  offset="0.8235" style="stop-color:#CAB076"/>
			<stop  offset="0.8537" style="stop-color:#E9D6A2"/>
			<stop  offset="0.8839" style="stop-color:#FCF6D4"/>
			<stop  offset="0.9291" style="stop-color:#FCF6D4"/>
			<stop  offset="0.9397" style="stop-color:#E7D59B"/>
			<stop  offset="0.9548" style="stop-color:#C5A86E"/>
			<stop  offset="0.9744" style="stop-color:#795B34"/>
			<stop  offset="1" style="stop-color:#795B34"/>
		</linearGradient>
		<path fill="url(#SVGID_40_)" d="M769.876,583.615c0.008,0,0.015,0.001,0.023,0.001c0.265,0.01,0.484,0.056,0.532,0.112
			c0.032,0.037,0.792,0.951,0.449,4.596c-0.351,3.74-0.38,8.443,2.535,11.645c1.191,1.309,3.383,2.868,7.057,2.868
			c0.175,0,0.352-0.004,0.534-0.011c7.668-0.299,7.693-7.52,7.702-10.239c0.003-0.921,0.006-1.873,0.13-2.419
			c0.216-0.954,0.276-1.894,0.329-2.723c0.016-0.247,0.035-0.553,0.061-0.836c0.469,0.132,1.096,0.712,2.034,3.479
			c3.234,9.538,3.63,16.11,1.176,19.533c-2.056,2.868-6.803,4.322-14.108,4.322c-1.45,0-3.024-0.058-4.681-0.171
			c-10.963-0.753-17.108-2.576-19.925-5.913c-2.35-2.783-3.058-7.409-2.297-14.999l0.068-0.703c0.096-1.017,0.256-2.698,0.547-3.181
			c0.031-0.012,0.081-0.028,0.154-0.045c0.147-0.034,0.285-0.051,0.411-0.051c1.193,0,2.187,1.814,2.462,2.369
			c0.177,0.373,0.246,1.657,0.287,2.424c0.138,2.566,0.505,9.382,7.893,9.382c0.808,0,1.658-0.087,2.598-0.265
			c4.185-0.792,4.391-5.555,4.413-14.611c0.003-1.011-0.113-1.989-0.225-2.935C769.983,584.788,769.906,584.142,769.876,583.615
			 M769.671,579.611c-5.532,0-3.4,5.017-3.409,8.56c-0.009,3.726-0.106,10.492-1.157,10.691c-0.703,0.133-1.317,0.195-1.854,0.195
			c-5.44,0-2.996-6.36-4.597-9.584c-1.352-2.723-3.446-4.591-6.045-4.591c-0.424,0-0.862,0.05-1.312,0.154
			c-3.45,0.797-3.516,4.11-3.849,7.427c-1.81,18.049,3.92,23.791,25.928,25.302c1.748,0.12,3.399,0.181,4.955,0.181
			c18.741,0,23.611-8.817,16.72-29.14c-1.073-3.164-2.485-6.085-5.982-6.234c-0.109-0.005-0.215-0.007-0.318-0.007
			c-4.319,0-3.209,4.044-3.814,6.723c-0.794,3.513,1.224,9.335-4.086,9.542c-0.129,0.005-0.254,0.007-0.378,0.007
			c-5.77,0-6.052-5.425-5.61-10.139c0.396-4.217-0.147-8.898-4.809-9.079C769.922,579.614,769.795,579.611,769.671,579.611
			L769.671,579.611z"/>
	</g>
</g>
</svg>
